<svg width="32" height="32" viewBox="0 0 32 32" fill="none" xmlns="http://www.w3.org/2000/svg">
<path d="M14.1471 17.8529V31.75H2.10294C1.63881 31.75 1.50466 31.1517 1.17647 30.8235C0.848282 30.4953 0.25 30.3612 0.25 29.897V17.8529H14.1471ZM17.8529 0.25H29.8971C30.3612 0.25 30.4953 0.848282 30.8235 1.17647C31.1517 1.50466 31.75 1.63881 31.75 2.10294V29.897C31.75 30.3612 31.1517 30.4953 30.8235 30.8235C30.4953 31.1517 30.3612 31.75 29.8971 31.75H17.8529V0.25ZM0.25 2.10294C0.25 1.63881 0.848282 1.50466 1.17647 1.17647C1.50466 0.848282 1.63881 0.25 2.10294 0.25H14.1471V14.1471H0.25V2.10294Z" fill="white"/>
</svg>
