<svg width="57" height="43" viewBox="0 0 57 43" fill="none" xmlns="http://www.w3.org/2000/svg">
<path d="M5.11441 39.9152C1.91586 36.5351 0.74292 31.489 0.74292 25.3436C0.74292 14.5296 8.59049 5.36389 19.6861 0.571777L22.6004 4.94327C12.2439 10.5171 10.2933 17.8688 9.4859 22.4292C11.1535 21.5703 13.1749 20.7743 15.3146 20.9721C20.9167 21.488 25.5147 26.9412 25.5147 32.6294C25.5147 35.4974 24.6387 37.8872 22.6004 39.9152C20.5621 41.9432 16.74 42.8295 13.8574 42.8295C10.5253 42.8295 7.12981 42.044 5.11441 39.9152ZM37.172 39.9152C33.9735 36.5351 31.3434 31.489 31.3434 25.3436C31.3434 14.5296 39.1909 5.36389 50.2865 0.571777L53.2008 4.94327C42.8443 10.5171 40.8937 17.8688 40.0863 22.4292C41.7539 21.5703 43.7754 20.7743 45.915 20.9721C51.5171 21.488 56.1151 26.9412 56.1151 32.6294C56.1151 35.4974 55.2391 37.8872 53.2008 39.9152C51.1625 41.9432 48.7976 42.8295 45.915 42.8295C42.5829 42.8295 39.1874 42.044 37.172 39.9152Z" fill="white"/>
</svg>
