<svg width="12" height="12" viewBox="0 0 12 12" fill="none" xmlns="http://www.w3.org/2000/svg">
<g clip-path="url(#clip0_39_334)">
<path d="M2.66511 7.9645C2.55503 7.48412 2.49968 6.99282 2.50011 6.5C2.50011 3.956 3.95161 1.782 6.00011 0.908997C8.04861 1.782 9.50011 3.956 9.50011 6.5C9.50011 7.005 9.44311 7.4955 9.33511 7.9645L10.3451 8.8625C10.3886 8.90116 10.4172 8.95377 10.4261 9.01127C10.4349 9.06876 10.4234 9.12755 10.3936 9.1775L9.16461 11.2255C9.14504 11.258 9.11832 11.2857 9.08648 11.3064C9.05463 11.327 9.01849 11.3402 8.98081 11.3448C8.94312 11.3494 8.90488 11.3454 8.86898 11.3331C8.83307 11.3207 8.80046 11.3003 8.77361 11.2735L7.64661 10.1465C7.55286 10.0527 7.4257 10 7.29311 10H4.70711C4.57451 10 4.44735 10.0527 4.35361 10.1465L3.22661 11.2735C3.19975 11.3003 3.16714 11.3207 3.13124 11.3331C3.09533 11.3454 3.05709 11.3494 3.0194 11.3448C2.98172 11.3402 2.94558 11.327 2.91373 11.3064C2.88189 11.2857 2.85517 11.258 2.83561 11.2255L1.60661 9.178C1.57664 9.128 1.56509 9.06911 1.57395 9.0115C1.5828 8.95389 1.61151 8.90118 1.65511 8.8625L2.66511 7.9645ZM6.00011 6.5C6.26532 6.5 6.51968 6.39464 6.70721 6.2071C6.89475 6.01957 7.00011 5.76521 7.00011 5.5C7.00011 5.23478 6.89475 4.98043 6.70721 4.79289C6.51968 4.60535 6.26532 4.5 6.00011 4.5C5.73489 4.5 5.48054 4.60535 5.293 4.79289C5.10546 4.98043 5.00011 5.23478 5.00011 5.5C5.00011 5.76521 5.10546 6.01957 5.293 6.2071C5.48054 6.39464 5.73489 6.5 6.00011 6.5Z" fill="#333333"/>
</g>
<defs>
<clipPath id="clip0_39_334">
<rect width="12" height="12" fill="white"/>
</clipPath>
</defs>
</svg>
