<svg width="108" height="18" viewBox="0 0 108 18" fill="none" xmlns="http://www.w3.org/2000/svg">
<path d="M40.6654 6.72191C40.5825 6.47398 40.4228 6.25565 40.2072 6.09554C39.9915 5.93543 39.73 5.84102 39.457 5.82469L34.5403 5.502L32.7193 1.13395C32.6199 0.893432 32.4468 0.686835 32.2225 0.540903C31.9982 0.394971 31.733 0.316424 31.4612 0.31543C31.1894 0.316424 30.9242 0.394971 30.6999 0.540903C30.4756 0.686835 30.3025 0.893432 30.2031 1.13395L28.349 5.52561L23.4655 5.82469C23.1927 5.84208 22.9318 5.93688 22.7163 6.09684C22.5009 6.2568 22.3409 6.47454 22.257 6.72191C22.1709 6.97307 22.1658 7.24301 22.2425 7.49691C22.3193 7.75082 22.4742 7.97706 22.6874 8.14645L26.4452 11.1687L25.3278 15.3478C25.2505 15.6306 25.2644 15.9289 25.3677 16.204C25.4711 16.4791 25.659 16.7182 25.9072 16.8904C26.1481 17.0548 26.4351 17.1471 26.7315 17.1555C27.0279 17.164 27.3202 17.0881 27.5709 16.9377L31.4529 14.6002H31.4695L35.6495 17.1108C35.8639 17.2433 36.1139 17.3143 36.3696 17.3154C36.5784 17.3139 36.784 17.2668 36.9707 17.1779C37.1573 17.0889 37.3201 16.9605 37.4464 16.8024C37.5727 16.6443 37.6592 16.4608 37.6992 16.2659C37.7393 16.0711 37.7318 15.8701 37.6774 15.6784L36.4937 11.1057L40.235 8.14645C40.4482 7.97706 40.6032 7.75082 40.6799 7.49691C40.7566 7.24301 40.7516 6.97307 40.6654 6.72191Z" fill="#FFC14B"/>
<path d="M85.0424 6.72191C84.9595 6.47398 84.7998 6.25565 84.5841 6.09554C84.3685 5.93543 84.107 5.84102 83.8339 5.82469L78.9173 5.502L77.0963 1.13395C76.9969 0.893432 76.8238 0.686835 76.5995 0.540903C76.3752 0.394971 76.1099 0.316424 75.8382 0.31543C75.5664 0.316424 75.3012 0.394971 75.0768 0.540903C74.8525 0.686835 74.6795 0.893432 74.58 1.13395L72.7259 5.52561L67.8424 5.82469C67.5697 5.84208 67.3087 5.93688 67.0933 6.09684C66.8778 6.2568 66.7178 6.47454 66.6339 6.72191C66.5478 6.97307 66.5428 7.24301 66.6195 7.49691C66.6962 7.75082 66.8512 7.97706 67.0644 8.14645L70.8222 11.1687L69.7048 15.3478C69.6275 15.6306 69.6414 15.9289 69.7447 16.204C69.848 16.4791 70.036 16.7182 70.2842 16.8904C70.5251 17.0548 70.8121 17.1471 71.1084 17.1555C71.4048 17.164 71.6971 17.0881 71.9479 16.9377L75.8299 14.6002H75.8464L80.0264 17.1108C80.2408 17.2433 80.4908 17.3143 80.7465 17.3154C80.9553 17.3139 81.1609 17.2668 81.3476 17.1779C81.5343 17.0889 81.697 16.9605 81.8233 16.8024C81.9496 16.6443 82.0361 16.4608 82.0762 16.2659C82.1162 16.0711 82.1087 15.8701 82.0543 15.6784L80.8707 11.1057L84.612 8.14645C84.8252 7.97706 84.9801 7.75082 85.0568 7.49691C85.1335 7.24301 85.1285 6.97307 85.0424 6.72191Z" fill="#FFC14B"/>
<path d="M107.231 6.72191C107.148 6.47398 106.988 6.25565 106.773 6.09554C106.557 5.93543 106.295 5.84102 106.022 5.82469L101.106 5.502L99.2848 1.13395C99.1853 0.893432 99.0123 0.686835 98.7879 0.540903C98.5636 0.394971 98.2984 0.316424 98.0266 0.31543C97.7548 0.316424 97.4896 0.394971 97.2653 0.540903C97.041 0.686835 96.8679 0.893432 96.7685 1.13395L94.9144 5.52561L90.0309 5.82469C89.7582 5.84208 89.4972 5.93688 89.2817 6.09684C89.0663 6.2568 88.9063 6.47454 88.8224 6.72191C88.7363 6.97307 88.7313 7.24301 88.808 7.49691C88.8847 7.75082 89.0396 7.97706 89.2528 8.14645L93.0107 11.1687L91.8932 15.3478C91.8159 15.6306 91.8299 15.9289 91.9332 16.204C92.0365 16.4791 92.2245 16.7182 92.4727 16.8904C92.7135 17.0548 93.0005 17.1471 93.2969 17.1555C93.5933 17.164 93.8856 17.0881 94.1364 16.9377L98.0184 14.6002H98.0349L102.215 17.1108C102.429 17.2433 102.679 17.3143 102.935 17.3154C103.144 17.3139 103.349 17.2668 103.536 17.1779C103.723 17.0889 103.886 16.9605 104.012 16.8024C104.138 16.6443 104.225 16.4608 104.265 16.2659C104.305 16.0711 104.297 15.8701 104.243 15.6784L103.059 11.1057L106.8 8.14645C107.014 7.97706 107.169 7.75082 107.245 7.49691C107.322 7.24301 107.317 6.97307 107.231 6.72191Z" fill="#FFC14B"/>
<path d="M18.4769 6.72191C18.3941 6.47398 18.2343 6.25565 18.0187 6.09554C17.803 5.93543 17.5415 5.84102 17.2685 5.82469L12.3518 5.502L10.5309 1.13395C10.4314 0.893432 10.2584 0.686835 10.034 0.540903C9.80973 0.394971 9.54452 0.316424 9.27273 0.31543C9.00094 0.316424 8.73572 0.394971 8.51142 0.540903C8.28711 0.686835 8.11403 0.893432 8.0146 1.13395L6.16051 5.52561L1.27698 5.82469C1.00425 5.84208 0.743283 5.93688 0.527839 6.09684C0.312394 6.2568 0.152385 6.47454 0.0685104 6.72191C-0.0176213 6.97307 -0.0226537 7.24301 0.0540622 7.49691C0.130778 7.75082 0.285725 7.97706 0.498924 8.14645L4.25676 11.1687L3.13934 15.3478C3.06203 15.6306 3.07594 15.9289 3.17927 16.204C3.2826 16.4791 3.47057 16.7182 3.71874 16.8904C3.95964 17.0548 4.24664 17.1471 4.54302 17.1555C4.8394 17.164 5.13168 17.0881 5.38246 16.9377L9.26445 14.6002H9.28101L13.461 17.1108C13.6754 17.2433 13.9254 17.3143 14.1811 17.3154C14.3899 17.3139 14.5955 17.2668 14.7822 17.1779C14.9689 17.0889 15.1316 16.9605 15.2579 16.8024C15.3842 16.6443 15.4707 16.4608 15.5107 16.2659C15.5508 16.0711 15.5433 15.8701 15.4889 15.6784L14.3053 11.1057L18.0465 8.14645C18.2597 7.97706 18.4147 7.75082 18.4914 7.49691C18.5681 7.24301 18.5631 6.97307 18.4769 6.72191Z" fill="#FFC14B"/>
<path d="M62.8539 6.72191C62.771 6.47398 62.6113 6.25565 62.3956 6.09554C62.18 5.93543 61.9185 5.84102 61.6454 5.82469L56.7288 5.502L54.9078 1.13395C54.8084 0.893432 54.6353 0.686835 54.411 0.540903C54.1867 0.394971 53.9215 0.316424 53.6497 0.31543C53.3779 0.316424 53.1127 0.394971 52.8884 0.540903C52.6641 0.686835 52.491 0.893432 52.3916 1.13395L50.5375 5.52561L45.6539 5.82469C45.3812 5.84208 45.1202 5.93688 44.9048 6.09684C44.6893 6.2568 44.5293 6.47454 44.4455 6.72191C44.3593 6.97307 44.3543 7.24301 44.431 7.49691C44.5077 7.75082 44.6627 7.97706 44.8759 8.14645L48.6337 11.1687L47.5163 15.3478C47.439 15.6306 47.4529 15.9289 47.5562 16.204C47.6596 16.4791 47.8475 16.7182 48.0957 16.8904C48.3366 17.0548 48.6236 17.1471 48.92 17.1555C49.2164 17.164 49.5086 17.0881 49.7594 16.9377L53.6414 14.6002H53.658L57.8379 17.1108C58.0524 17.2433 58.3023 17.3143 58.558 17.3154C58.7668 17.3139 58.9725 17.2668 59.1591 17.1779C59.3458 17.0889 59.5086 16.9605 59.6349 16.8024C59.7612 16.6443 59.8477 16.4608 59.8877 16.2659C59.9277 16.0711 59.9203 15.8701 59.8658 15.6784L58.6822 11.1057L62.4235 8.14645C62.6367 7.97706 62.7916 7.75082 62.8683 7.49691C62.9451 7.24301 62.94 6.97307 62.8539 6.72191Z" fill="#FFC14B"/>
</svg>
