<svg width="287" height="73" viewBox="0 0 287 73" fill="none" xmlns="http://www.w3.org/2000/svg">
<path d="M114.005 57.1397L114.281 56.7231L114.005 57.1397ZM285.481 72.1428C285.73 72.2607 286.028 72.1538 286.146 71.904C286.264 71.6543 286.157 71.3563 285.907 71.2385L285.481 72.1428ZM0.677878 4.93183C1.71219 4.71837 2.73869 4.51555 3.75741 4.32315L3.57183 3.34052C2.54754 3.53397 1.51553 3.73789 0.475765 3.95247L0.677878 4.93183ZM9.77673 3.29221C11.8606 2.97256 13.9102 2.69749 15.9258 2.46509L15.8113 1.47167C13.7831 1.70552 11.7211 1.98226 9.62511 2.30377L9.77673 3.29221ZM22.0467 1.88068C24.119 1.72466 26.1532 1.61478 28.1498 1.54875L28.1168 0.549292C26.106 0.615795 24.0577 0.726438 21.9716 0.883505L22.0467 1.88068ZM34.3224 1.48317C36.4205 1.50898 38.4741 1.58437 40.4836 1.7063L40.5442 0.708138C38.5184 0.585219 36.4487 0.509256 34.3347 0.483242L34.3224 1.48317ZM46.6067 2.23387C48.683 2.46699 50.7085 2.75095 52.6838 3.08193L52.849 2.09568C50.8558 1.76169 48.8124 1.47523 46.7182 1.24011L46.6067 2.23387ZM58.7015 4.26664C60.7395 4.72936 62.7189 5.24313 64.6407 5.80302L64.9204 4.84294C62.9793 4.27741 60.9804 3.75861 58.9229 3.29146L58.7015 4.26664ZM70.4773 7.70373C72.4465 8.41496 74.348 9.17516 76.183 9.97791L76.5838 9.06174C74.7288 8.25023 72.8069 7.4819 70.8171 6.7632L70.4773 7.70373ZM81.7262 12.6303C83.5863 13.6002 85.3681 14.6132 87.0729 15.6608L87.5965 14.8089C85.8718 13.749 84.0697 12.7244 82.1885 11.7436L81.7262 12.6303ZM92.1875 19.0638C93.8934 20.2907 95.5074 21.549 97.0317 22.8276L97.6744 22.0615C96.1313 20.7671 94.4976 19.4935 92.7713 18.252L92.1875 19.0638ZM101.564 26.9338C103.083 28.4211 104.489 29.919 105.785 31.4109L106.54 30.7551C105.227 29.2431 103.802 27.7256 102.264 26.2192L101.564 26.9338ZM109.598 36.1979C110.875 37.9542 111.996 39.6753 112.967 41.3321L113.83 40.8264C112.842 39.1407 111.702 37.3921 110.406 35.6098L109.598 36.1979ZM115.743 46.7785C116.672 48.9416 117.285 50.8839 117.604 52.5139L118.585 52.3218C118.249 50.6072 117.612 48.5963 116.662 46.3839L115.743 46.7785ZM116.772 57.5192C116.273 57.6605 115.461 57.506 114.281 56.7231L113.728 57.5564C114.977 58.3848 116.111 58.7454 117.044 58.4814L116.772 57.5192ZM114.281 56.7231C113.369 56.1177 112.603 55.476 111.98 54.8099L111.249 55.4927C111.932 56.2233 112.76 56.914 113.728 57.5564L114.281 56.7231ZM109.924 49.6281C110.047 47.9571 110.875 46.2096 112.485 44.5052L111.758 43.8184C110.035 45.6431 109.071 47.597 108.927 49.5547L109.924 49.6281ZM117.254 40.919C118.844 40.0244 120.697 39.1841 122.814 38.4233L122.476 37.4822C120.314 38.2592 118.409 39.1217 116.764 40.0473L117.254 40.919ZM128.658 36.7022C130.534 36.2546 132.553 35.861 134.714 35.5312L134.563 34.5426C132.376 34.8764 130.331 35.275 128.426 35.7295L128.658 36.7022ZM140.776 34.8127C142.723 34.6433 144.764 34.5209 146.898 34.4503L146.865 33.4508C144.713 33.522 142.655 33.6455 140.69 33.8164L140.776 34.8127ZM153.043 34.3911C155.024 34.4162 157.075 34.483 159.196 34.5945L159.248 33.5959C157.115 33.4837 155.051 33.4165 153.056 33.3912L153.043 34.3911ZM165.352 35.0294C167.342 35.2048 169.387 35.4173 171.486 35.6694L171.605 34.6765C169.496 34.4232 167.44 34.2096 165.439 34.0333L165.352 35.0294ZM177.548 36.4859C179.525 36.7804 181.546 37.1084 183.611 37.4713L183.784 36.4863C181.711 36.122 179.681 35.7926 177.695 35.4968L177.548 36.4859ZM189.69 38.6161C191.663 39.012 193.673 39.4386 195.72 39.897L195.939 38.9212C193.884 38.4611 191.867 38.033 189.887 37.6356L189.69 38.6161ZM201.681 41.2971C203.65 41.7807 205.651 42.2929 207.685 42.8346L207.942 41.8682C205.902 41.3249 203.895 40.8112 201.919 40.326L201.681 41.2971ZM213.602 44.4685C215.542 45.0227 217.508 45.6028 219.503 46.2098L219.794 45.2531C217.794 44.6445 215.822 44.0627 213.877 43.507L213.602 44.4685ZM225.42 48.0631C227.331 48.6786 229.266 49.318 231.225 49.982L231.546 49.0349C229.582 48.3693 227.642 47.7283 225.726 47.1113L225.42 48.0631ZM237.115 52.0262C239.001 52.6963 240.909 53.3887 242.839 54.1039L243.186 53.1662C241.252 52.4495 239.34 51.7556 237.449 51.0839L237.115 52.0262ZM248.677 56.3125C250.545 57.0332 252.432 57.7748 254.339 58.5376L254.71 57.6092C252.8 56.8448 250.909 56.1018 249.037 55.3796L248.677 56.3125ZM260.117 60.8905C261.97 61.6581 263.841 62.4455 265.729 63.253L266.122 62.3335C264.23 61.5246 262.356 60.7357 260.5 59.9666L260.117 60.8905ZM271.432 65.7292C273.277 66.5427 275.139 67.375 277.017 68.2264L277.43 67.3157C275.549 66.4628 273.684 65.6291 271.835 64.8142L271.432 65.7292ZM282.636 70.8088C283.58 71.2487 284.528 71.6934 285.481 72.1428L285.907 71.2385C284.954 70.7883 284.004 70.3429 283.058 69.9023L282.636 70.8088Z" fill="black"/>
</svg>
